<svg xmlns="http://www.w3.org/2000/svg" xmlns:xlink="http://www.w3.org/1999/xlink" xmlns:lucid="lucid" width="1841.98" height="1060"><g transform="translate(1778.6224402535488 -180.00000000000003)" lucid:page-tab-id="0_0"><path d="M-1806.87 0H64v1322.84h-1870.87z" fill="#fff"/><path d="M-1048.38 672.03a6 6 0 0 1 6-6h246.78a6 6 0 0 1 6 6v75.94a6 6 0 0 1-6 6h-246.78a6 6 0 0 1-6-6z" stroke="#3a414a" fill-opacity="0"/><use xlink:href="#a" transform="matrix(1,0,0,1,-1040.3793195573173,674.0344827586208) translate(43.41358024691358 17.77777777777778)"/><use xlink:href="#b" transform="matrix(1,0,0,1,-1040.3793195573173,674.0344827586208) translate(96.37654320987654 17.77777777777778)"/><use xlink:href="#c" transform="matrix(1,0,0,1,-1040.3793195573173,674.0344827586208) translate(147.73456790123458 17.77777777777778)"/><use xlink:href="#d" transform="matrix(1,0,0,1,-1040.3793195573173,674.0344827586208) translate(32.79629629629629 44.44444444444444)"/><use xlink:href="#e" transform="matrix(1,0,0,1,-1040.3793195573173,674.0344827586208) translate(107.85802469135801 44.44444444444444)"/><path d="M-1509.34 434.62a6 6 0 0 1 6-6h198.26a6 6 0 0 1 6 6v58.35a6 6 0 0 1-6 6h-198.26a6 6 0 0 1-6-6z" stroke="#3a414a" fill-opacity="0"/><use xlink:href="#f" transform="matrix(1,0,0,1,-1501.3351146835414,436.6206896551724) translate(17.993827160493836 17.77777777777778)"/><use xlink:href="#g" transform="matrix(1,0,0,1,-1501.3351146835414,436.6206896551724) translate(12.407407407407419 44.44444444444444)"/><use xlink:href="#h" transform="matrix(1,0,0,1,-1501.3351146835414,436.6206896551724) translate(70.30864197530866 44.44444444444444)"/><use xlink:href="#i" transform="matrix(1,0,0,1,-1501.3351146835414,436.6206896551724) translate(120.8641975308642 44.44444444444444)"/><use xlink:href="#j" transform="matrix(1,0,0,1,-1501.3351146835414,436.6206896551724) translate(164.07407407407408 44.44444444444444)"/><path d="M-635.95 663.24a6 6 0 0 1 6-6h246.8a6 6 0 0 1 6 6v75.93a6 6 0 0 1-6 6h-246.8a6 6 0 0 1-6-6z" stroke="#3a414a" fill-opacity="0"/><use xlink:href="#k" transform="matrix(1,0,0,1,-627.9451870759586,665.2413793103448) translate(35.388888888888886 17.77777777777778)"/><use xlink:href="#b" transform="matrix(1,0,0,1,-627.9451870759586,665.2413793103448) translate(104.40123456790123 17.77777777777778)"/><use xlink:href="#c" transform="matrix(1,0,0,1,-627.9451870759586,665.2413793103448) translate(155.75925925925924 17.77777777777778)"/><use xlink:href="#d" transform="matrix(1,0,0,1,-627.9451870759586,665.2413793103448) translate(32.79629629629629 44.44444444444444)"/><use xlink:href="#e" transform="matrix(1,0,0,1,-627.9451870759586,665.2413793103448) translate(107.85802469135801 44.44444444444444)"/><path d="M-1048.38 1120.48a6 6 0 0 1 6-6h246.78a6 6 0 0 1 6 6v75.93a6 6 0 0 1-6 6h-246.78a6 6 0 0 1-6-6z" stroke="#3a414a" fill-opacity="0"/><use xlink:href="#a" transform="matrix(1,0,0,1,-1040.3793195573173,1122.4827586206898) translate(43.41358024691358 17.77777777777778)"/><use xlink:href="#b" transform="matrix(1,0,0,1,-1040.3793195573173,1122.4827586206898) translate(96.37654320987654 17.77777777777778)"/><use xlink:href="#c" transform="matrix(1,0,0,1,-1040.3793195573173,1122.4827586206898) translate(147.73456790123458 17.77777777777778)"/><use xlink:href="#d" transform="matrix(1,0,0,1,-1040.3793195573173,1122.4827586206898) translate(32.79629629629629 44.44444444444444)"/><use xlink:href="#e" transform="matrix(1,0,0,1,-1040.3793195573173,1122.4827586206898) translate(107.85802469135801 44.44444444444444)"/><path d="M-1460.8 525.35h194.07v52.75h-194.08z" fill="none"/><use xlink:href="#l" transform="matrix(1,0,0,1,-1460.8134520386757,525.3448275862071) translate(59.845679012345684 30.944444444444443)"/><path d="M-1703.42 216.17c0 8.94-7.24 16.18-16.18 16.18-8.93 0-16.17-7.24-16.17-16.18 0-8.93 7.24-16.17 16.17-16.17 8.94 0 16.18 7.24 16.18 16.17z" stroke="#3a414a" fill="#fff"/><path d="M-1719.6 232.35v43.42a21.87 21.87 0 0 0 3.07 11.16l29.28 49.35m-32.35-54.5l-32.34 54.5m0-87.76h64.7" stroke="#3a414a" fill="none"/><path d="M-1751.94 206a6 6 0 0 1 6-6h52.7a6 6 0 0 1 6 6v146.28a6 6 0 0 1-6 6h-52.7a6 6 0 0 1-6-6z" fill="none"/><use xlink:href="#m" transform="matrix(1,0,0,1,-1831.9434279078698,336.2758620689656) translate(74.32098765432099 17.77777777777778)"/><path d="M-1331.42 279.14c0 29.14-28.97 52.76-64.7 52.76-35.73 0-64.7-23.62-64.7-52.76 0-29.14 28.97-52.76 64.7-52.76 35.73 0 64.7 23.62 64.7 52.76z" stroke="#3a414a" fill="#fff"/><use xlink:href="#n" transform="matrix(1,0,0,1,-1460.8134520386757,226.37931034482762) translate(15.054999999999994 44.2125)"/><use xlink:href="#o" transform="matrix(1,0,0,1,-1460.8134520386757,226.37931034482762) translate(86.005 44.2125)"/><use xlink:href="#p" transform="matrix(1,0,0,1,-1460.8134520386757,226.37931034482762) translate(101.005 44.2125)"/><use xlink:href="#q" transform="matrix(1,0,0,1,-1460.8134520386757,226.37931034482762) translate(48.529999999999994 65.8125)"/><path d="M-1686.75 279.14h224.94" stroke="#3a414a" fill="none"/><path d="M-1686.73 279.64h-3.52v-1h3.52zM-1461.3 279.13v.5h-.53v-1h.53z" stroke="#3a414a" stroke-width=".05" fill="#3a414a"/><path d="M-1339.5 710c0 29.14-28.97 52.76-64.7 52.76-35.73 0-64.7-23.62-64.7-52.76 0-29.14 28.97-52.76 64.7-52.76 35.73 0 64.7 23.62 64.7 52.76z" stroke="#3a414a" fill="#fff"/><use xlink:href="#r" transform="matrix(1,0,0,1,-1468.9003958128199,657.241379310345) translate(33.05499999999999 34.275)"/><use xlink:href="#s" transform="matrix(1,0,0,1,-1468.9003958128199,657.241379310345) translate(40.53 55.875)"/><use xlink:href="#p" transform="matrix(1,0,0,1,-1468.9003958128199,657.241379310345) translate(74.53 55.875)"/><use xlink:href="#t" transform="matrix(1,0,0,1,-1468.9003958128199,657.241379310345) translate(30.054999999999996 77.47500000000001)"/><path d="M-1339.5 938.62c0 29.14-28.97 52.76-64.7 52.76-35.73 0-64.7-23.62-64.7-52.76 0-29.14 28.97-52.76 64.7-52.76 35.73 0 64.7 23.62 64.7 52.76z" stroke="#3a414a" fill="#fff"/><use xlink:href="#u" transform="matrix(1,0,0,1,-1468.9003958128199,885.8620689655173) translate(26.054999999999996 34.275)"/><use xlink:href="#v" transform="matrix(1,0,0,1,-1468.9003958128199,885.8620689655173) translate(8.529999999999996 55.875)"/><use xlink:href="#w" transform="matrix(1,0,0,1,-1468.9003958128199,885.8620689655173) translate(37.529999999999994 55.875)"/><path d="M-1720.34 279.14h-33.5a6 6 0 0 0-6 6V913.9a6 6 0 0 0 6 6h288.12M-1720.35 279.14h3.5" stroke="#3a414a" fill="none"/><path d="M-1465.45 920.4h-.3v-1h.75z" stroke="#3a414a" stroke-width=".05" fill="#3a414a"/><path d="M-1404.2 884.86V779.64" stroke="#3a414a" fill="none"/><path d="M-1403.7 885.38l-.5-.02h-.5v-.5h1z" stroke="#3a414a" stroke-width=".05" fill="#3a414a"/><path d="M-1404.2 764.88l4.63 14.26h-9.27z" stroke="#3a414a" fill="#3a414a"/><path d="M-1460.8 833.1h194.07v52.76h-194.08z" fill="none"/><use xlink:href="#l" transform="matrix(1,0,0,1,-1460.8134520386757,833.1034482758622) translate(59.845679012345684 30.944444444444443)"/><path d="M-983.68 885.86h108.28l21.1 21.1v84.42h-129.38z" stroke="#3a414a" fill="#fff"/><path d="M-875.4 886.34v20.63h20.63" stroke="#3a414a" fill="#fff"/><use xlink:href="#x" transform="matrix(1,0,0,1,-978.683769364163,890.8620689655173) translate(0 38.77777777777778)"/><use xlink:href="#y" transform="matrix(1,0,0,1,-978.683769364163,890.8620689655173) translate(0 65.44444444444446)"/><path d="M-919 884.86v-114" stroke="#3a414a" fill="none"/><path d="M-918.5 885.36h-1v-.5h1z" stroke="#3a414a" stroke-width=".05" fill="#3a414a"/><path d="M-919 756.1l4.65 14.25h-9.27z" stroke="#3a414a" fill="#3a414a"/><path d="M-1338.5 710h273.24" stroke="#3a414a" fill="none"/><path d="M-1338.5 710.5h-.53l.02-.5-.02-.5h.52z" stroke="#3a414a" stroke-width=".05" fill="#3a414a"/><path d="M-1050.5 710l-14.26 4.63v-9.26z" stroke="#3a414a" fill="#3a414a"/><path d="M-984.68 938.62h-337.95" stroke="#3a414a" fill="none"/><path d="M-984.18 939.12h-.52v-1h.52z" stroke="#3a414a" stroke-width=".05" fill="#3a414a"/><path d="M-1337.4 938.62l14.28-4.63v9.26z" stroke="#3a414a" fill="#3a414a"/><path d="M-1161.6 894.65h194.1v52.76h-194.1z" fill="none"/><use xlink:href="#z" transform="matrix(1,0,0,1,-1161.596532395337,894.6551724137931) translate(58.05555555555556 30.944444444444443)"/><path d="M-1080.73 815.52h194.1v52.76h-194.1z" fill="none"/><use xlink:href="#z" transform="matrix(1,0,0,1,-1080.7270946538943,815.5172413793103) translate(58.05555555555556 30.944444444444443)"/><path d="M-1404.2 499.9v140.47" stroke="#3a414a" fill="none"/><path d="M-1403.7 499.92h-1v-.46h1z" stroke="#3a414a" stroke-width=".05" fill="#3a414a"/><path d="M-1404.2 655.12l-4.64-14.26h9.27z" stroke="#3a414a" fill="#3a414a"/><path d="M-1396.12 332.9v47.35l.02.02v31.47" stroke="#3a414a" fill="none"/><path d="M-1396.12 332.4h.5v.5h-1v-.52z" stroke="#3a414a" stroke-width=".05" fill="#3a414a"/><path d="M-1396.1 426.5l-4.64-14.26h9.27z" stroke="#3a414a" fill="#3a414a"/><path d="M-983.68 411.03h108.28l21.1 21.1v84.42h-129.38z" stroke="#3a414a" fill="#fff"/><path d="M-875.4 411.5v20.64h20.63" stroke="#3a414a" fill="#fff"/><use xlink:href="#A" transform="matrix(1,0,0,1,-978.683769364163,416.03448275862064) translate(0 26.77777777777778)"/><use xlink:href="#B" transform="matrix(1,0,0,1,-978.683769364163,416.03448275862064) translate(0 53.44444444444445)"/><use xlink:href="#C" transform="matrix(1,0,0,1,-978.683769364163,416.03448275862064) translate(0 80.11111111111111)"/><path d="M-984.68 463.8h-298" stroke="#3a414a" fill="none"/><path d="M-984.18 464.3h-.52v-1h.52z" stroke="#3a414a" stroke-width=".05" fill="#3a414a"/><path d="M-1297.46 463.8l14.27-4.64v9.27z" stroke="#3a414a" fill="#3a414a"/><path d="M-490.38 216.17c0 8.94-7.24 16.18-16.17 16.18-8.94 0-16.18-7.24-16.18-16.18 0-8.93 7.24-16.17 16.18-16.17 8.93 0 16.17 7.24 16.17 16.17z" stroke="#3a414a" fill="#fff"/><path d="M-506.55 232.35v43.42a21.87 21.87 0 0 0 3.06 11.16l29.3 49.35m-32.35-54.5l-32.35 54.5m0-87.76h64.7" stroke="#3a414a" fill="none"/><path d="M-538.9 206a6 6 0 0 1 6-6h52.7a6 6 0 0 1 6 6v146.28a6 6 0 0 1-6 6h-52.7a6 6 0 0 1-6-6z" fill="none"/><use xlink:href="#D" transform="matrix(1,0,0,1,-618.9018617862273,336.2758620689656) translate(81.08024691358025 17.77777777777778)"/><path d="M-862.38 279.14c0 29.14-28.97 52.76-64.7 52.76-35.73 0-64.7-23.62-64.7-52.76 0-29.14 28.97-52.76 64.7-52.76 35.74 0 64.7 23.62 64.7 52.76z" stroke="#3a414a" fill="#fff"/><use xlink:href="#E" transform="matrix(1,0,0,1,-991.7707131383072,226.37931034482762) translate(19.62999999999999 44.2125)"/><use xlink:href="#F" transform="matrix(1,0,0,1,-991.7707131383072,226.37931034482762) translate(39.055 65.8125)"/><use xlink:href="#G" transform="matrix(1,0,0,1,-991.7707131383072,226.37931034482762) translate(58.005 65.8125)"/><path d="M-507.46 269.4h-177.5H-862.5M-507.47 269.4h3.5" stroke="#3a414a" fill="none"/><path d="M-862.5 269.9h-.4l-.2-1h.6z" stroke="#3a414a" stroke-width=".05" fill="#3a414a"/><path d="M-927.08 332.9V394.16" stroke="#3a414a" fill="none"/><path d="M-927.08 332.4h.5v.5h-1v-.52z" stroke="#3a414a" stroke-width=".05" fill="#3a414a"/><path d="M-927.08 408.92l-4.64-14.27h9.27z" stroke="#3a414a" fill="#3a414a"/><path d="M-853.3 463.8h340.75a6 6 0 0 1 6 6v170.56" stroke="#3a414a" fill="none"/><path d="M-853.28 464.3h-.5v-1h.5z" stroke="#3a414a" stroke-width=".05" fill="#3a414a"/><path d="M-506.55 655.12l-4.64-14.26h9.28z" stroke="#3a414a" fill="#3a414a"/><path d="M-1339.5 1167.24c0 29.14-28.97 52.76-64.7 52.76-35.73 0-64.7-23.62-64.7-52.76 0-29.14 28.97-52.76 64.7-52.76 35.73 0 64.7 23.62 64.7 52.76z" stroke="#3a414a" fill="#fff"/><g><use xlink:href="#H" transform="matrix(1,0,0,1,-1468.9003958128199,1114.4827586206898) translate(17.60499999999999 44.2125)"/><use xlink:href="#I" transform="matrix(1,0,0,1,-1468.9003958128199,1114.4827586206898) translate(92.405 44.2125)"/><use xlink:href="#J" transform="matrix(1,0,0,1,-1468.9003958128199,1114.4827586206898) translate(45.53 65.8125)"/></g><path d="M-1720.5 269.4h-33.5a6 6 0 0 0-6 6v885.84a6 6 0 0 0 6 6h284.1M-1720.5 269.4h3.5" stroke="#3a414a" fill="none"/><path d="M-1469.4 1167.23v.5h-.5v-1h.52z" stroke="#3a414a" stroke-width=".05" fill="#3a414a"/><path d="M-1338.5 1167.24h273.25" stroke="#3a414a" fill="none"/><path d="M-1338.5 1167.74h-.53l.02-.5-.02-.5h.52z" stroke="#3a414a" stroke-width=".05" fill="#3a414a"/><path d="M-1050.5 1167.25l-14.26 4.63v-9.27z" stroke="#3a414a" fill="#3a414a"/><path d="M-587.42 1105.7h166.32l21.1 21.1v84.4h-187.42z" stroke="#3a414a" fill="#fff"/><path d="M-421.1 1106.17v20.62h20.62" stroke="#3a414a" fill="#fff"/><g><use xlink:href="#K" transform="matrix(1,0,0,1,-582.423524431093,1110.689655172414) translate(0 38.77777777777778)"/><use xlink:href="#L" transform="matrix(1,0,0,1,-582.423524431093,1110.689655172414) translate(0 65.44444444444446)"/></g><path d="M-588.42 1158.45h-184.3" stroke="#3a414a" fill="none"/><path d="M-587.92 1158.95h-.52v-1h.52z" stroke="#3a414a" stroke-width=".05" fill="#3a414a"/><path d="M-787.48 1158.45l14.27-4.64v9.28z" stroke="#3a414a" fill="#3a414a"/><path d="M-781.5 1114.48h194.08v52.76h-194.1z" fill="none"/><g><use xlink:href="#z" transform="matrix(1,0,0,1,-781.510175010556,1114.4827586206895) translate(58.05555555555556 30.944444444444443)"/></g><path d="M43.36 758.03c0 10.5-32.6 19.02-72.78 19.02-40.2 0-72.8-8.52-72.8-19.02V605.9c0-10.5 32.6-19 72.8-19 40.2 0 72.78 8.5 72.78 19z" stroke="#3a414a" fill="#fff"/><path d="M43.36 605.9c0 10.5-32.6 19.03-72.78 19.03-40.2 0-72.8-8.52-72.8-19.02" stroke="#3a414a" fill="none"/><g><use xlink:href="#M" transform="matrix(1,0,0,1,-97.20689798243626,629.9267241379309) translate(39.04938271604939 35.65277777777778)"/><use xlink:href="#N" transform="matrix(1,0,0,1,-97.20689798243626,629.9267241379309) translate(20.5 62.31944444444445)"/><use xlink:href="#O" transform="matrix(1,0,0,1,-97.20689798243626,629.9267241379309) translate(1.2098765432098872 88.98611111111111)"/><use xlink:href="#P" transform="matrix(1,0,0,1,-97.20689798243626,629.9267241379309) translate(78.8641975308642 88.98611111111111)"/><use xlink:href="#Q" transform="matrix(1,0,0,1,-97.20689798243626,629.9267241379309) translate(7.598765432098773 115.6527777777778)"/><use xlink:href="#R" transform="matrix(1,0,0,1,-97.20689798243626,629.9267241379309) translate(85.25308641975309 115.6527777777778)"/></g><path d="M-837.4 444.77h811.23a6 6 0 0 1 6 6V586.2" stroke="#3a414a" fill="none"/><path d="M-852.17 444.77l14.26-4.63v9.27z" stroke="#3a414a" fill="#3a414a"/><path d="M-19.68 586.72l-1-.03v-.5h1z" stroke="#3a414a" stroke-width=".05" fill="#3a414a"/><path d="M-837.4 938.62h801.98a6 6 0 0 0 6-6V778.05" stroke="#3a414a" fill="none"/><path d="M-852.17 938.62l14.26-4.63v9.26z" stroke="#3a414a" fill="#3a414a"/><path d="M-29.43 777.55l.5-.02v.53h-1v-.53z" stroke="#3a414a" stroke-width=".05" fill="#3a414a"/><path d="M-383.12 1158.45h366.68a6 6 0 0 0 6-6V777.32" stroke="#3a414a" fill="none"/><path d="M-397.88 1158.45l14.26-4.64v9.28z" stroke="#3a414a" fill="#3a414a"/><path d="M-9.94 777.33h-1v-.46l1-.1z" stroke="#3a414a" stroke-width=".05" fill="#3a414a"/><defs><path fill="#3a414a" d="M232-93c-1 65-40 97-104 97C67 4 28-28 28-90v-158h33c8 89-33 224 67 224 102 0 64-133 71-224h33v155" id="S"/><path fill="#3a414a" d="M135-143c-3-34-86-38-87 0 15 53 115 12 119 90S17 21 10-45l28-5c4 36 97 45 98 0-10-56-113-15-118-90-4-57 82-63 122-42 12 7 21 19 24 35" id="T"/><path fill="#3a414a" d="M100-194c63 0 86 42 84 106H49c0 40 14 67 53 68 26 1 43-12 49-29l28 8c-11 28-37 45-77 45C44 4 14-33 15-96c1-61 26-98 85-98zm52 81c6-60-76-77-97-28-3 7-6 17-6 28h103" id="U"/><path fill="#3a414a" d="M114-163C36-179 61-72 57 0H25l-1-190h30c1 12-1 29 2 39 6-27 23-49 58-41v29" id="V"/><g id="a"><use transform="matrix(0.06172839506172839,0,0,0.06172839506172839,0,0)" xlink:href="#S"/><use transform="matrix(0.06172839506172839,0,0,0.06172839506172839,15.987654320987653,0)" xlink:href="#T"/><use transform="matrix(0.06172839506172839,0,0,0.06172839506172839,27.098765432098766,0)" xlink:href="#U"/><use transform="matrix(0.06172839506172839,0,0,0.06172839506172839,39.44444444444444,0)" xlink:href="#V"/></g><path fill="#3a414a" d="M266 0h-40l-56-210L115 0H75L2-248h35L96-30l15-64 43-154h32l59 218 59-218h35" id="W"/><path fill="#3a414a" d="M115-194c53 0 69 39 70 98 0 66-23 100-70 100C84 3 66-7 56-30L54 0H23l1-261h32v101c10-23 28-34 59-34zm-8 174c40 0 45-34 45-75 0-40-5-75-45-74-42 0-51 32-51 76 0 43 10 73 51 73" id="X"/><g id="b"><use transform="matrix(0.06172839506172839,0,0,0.06172839506172839,0,0)" xlink:href="#W"/><use transform="matrix(0.06172839506172839,0,0,0.06172839506172839,20.493827160493826,0)" xlink:href="#U"/><use transform="matrix(0.06172839506172839,0,0,0.06172839506172839,32.839506172839506,0)" xlink:href="#X"/></g><path fill="#3a414a" d="M30-248c87 1 191-15 191 75 0 78-77 80-158 76V0H30v-248zm33 125c57 0 124 11 124-50 0-59-68-47-124-48v98" id="Y"/><path fill="#3a414a" d="M141-36C126-15 110 5 73 4 37 3 15-17 15-53c-1-64 63-63 125-63 3-35-9-54-41-54-24 1-41 7-42 31l-33-3c5-37 33-52 76-52 45 0 72 20 72 64v82c-1 20 7 32 28 27v20c-31 9-61-2-59-35zM48-53c0 20 12 33 32 33 41-3 63-29 60-74-43 2-92-5-92 41" id="Z"/><path fill="#3a414a" d="M177-190C167-65 218 103 67 71c-23-6-38-20-44-43l32-5c15 47 100 32 89-28v-30C133-14 115 1 83 1 29 1 15-40 15-95c0-56 16-97 71-98 29-1 48 16 59 35 1-10 0-23 2-32h30zM94-22c36 0 50-32 50-73 0-42-14-75-50-75-39 0-46 34-46 75s6 73 46 73" id="aa"/><g id="c"><use transform="matrix(0.06172839506172839,0,0,0.06172839506172839,0,0)" xlink:href="#Y"/><use transform="matrix(0.06172839506172839,0,0,0.06172839506172839,14.814814814814813,0)" xlink:href="#Z"/><use transform="matrix(0.06172839506172839,0,0,0.06172839506172839,27.160493827160494,0)" xlink:href="#aa"/><use transform="matrix(0.06172839506172839,0,0,0.06172839506172839,39.50617283950617,0)" xlink:href="#U"/></g><path fill="#3a414a" d="M87 75C49 33 22-17 22-94c0-76 28-126 65-167h31c-38 41-64 92-64 168S80 34 118 75H87" id="ab"/><path fill="#3a414a" d="M63-220v92h138v28H63V0H30v-248h175v28H63" id="ac"/><path fill="#3a414a" d="M24-231v-30h32v30H24zM24 0v-190h32V0H24" id="ad"/><path fill="#3a414a" d="M210-169c-67 3-38 105-44 169h-31v-121c0-29-5-50-35-48C34-165 62-65 56 0H25l-1-190h30c1 10-1 24 2 32 10-44 99-50 107 0 11-21 27-35 58-36 85-2 47 119 55 194h-31v-121c0-29-5-49-35-48" id="ae"/><g id="d"><use transform="matrix(0.06172839506172839,0,0,0.06172839506172839,0,0)" xlink:href="#ab"/><use transform="matrix(0.06172839506172839,0,0,0.06172839506172839,7.345679012345679,0)" xlink:href="#ac"/><use transform="matrix(0.06172839506172839,0,0,0.06172839506172839,20.864197530864196,0)" xlink:href="#ad"/><use transform="matrix(0.06172839506172839,0,0,0.06172839506172839,25.74074074074074,0)" xlink:href="#aa"/><use transform="matrix(0.06172839506172839,0,0,0.06172839506172839,38.08641975308642,0)" xlink:href="#ae"/><use transform="matrix(0.06172839506172839,0,0,0.06172839506172839,56.5432098765432,0)" xlink:href="#Z"/></g><path fill="#3a414a" d="M100-194c62-1 85 37 85 99 1 63-27 99-86 99S16-35 15-95c0-66 28-99 85-99zM99-20c44 1 53-31 53-75 0-43-8-75-51-75s-53 32-53 75 10 74 51 75" id="af"/><path fill="#3a414a" d="M59-47c-2 24 18 29 38 22v24C64 9 27 4 27-40v-127H5v-23h24l9-43h21v43h35v23H59v120" id="ag"/><path fill="#3a414a" d="M179-190L93 31C79 59 56 82 12 73V49c39 6 53-20 64-50L1-190h34L92-34l54-156h33" id="ah"/><path fill="#3a414a" d="M115-194c55 1 70 41 70 98S169 2 115 4C84 4 66-9 55-30l1 105H24l-1-265h31l2 30c10-21 28-34 59-34zm-8 174c40 0 45-34 45-75s-6-73-45-74c-42 0-51 32-51 76 0 43 10 73 51 73" id="ai"/><path fill="#3a414a" d="M33-261c38 41 65 92 65 168S71 34 33 75H2C39 34 66-17 66-93S39-220 2-261h31" id="aj"/><g id="e"><use transform="matrix(0.06172839506172839,0,0,0.06172839506172839,0,0)" xlink:href="#Y"/><use transform="matrix(0.06172839506172839,0,0,0.06172839506172839,14.814814814814813,0)" xlink:href="#V"/><use transform="matrix(0.06172839506172839,0,0,0.06172839506172839,22.160493827160494,0)" xlink:href="#af"/><use transform="matrix(0.06172839506172839,0,0,0.06172839506172839,34.50617283950617,0)" xlink:href="#ag"/><use transform="matrix(0.06172839506172839,0,0,0.06172839506172839,40.67901234567901,0)" xlink:href="#af"/><use transform="matrix(0.06172839506172839,0,0,0.06172839506172839,53.02469135802469,0)" xlink:href="#ag"/><use transform="matrix(0.06172839506172839,0,0,0.06172839506172839,59.19753086419753,0)" xlink:href="#ah"/><use transform="matrix(0.06172839506172839,0,0,0.06172839506172839,70.30864197530865,0)" xlink:href="#ai"/><use transform="matrix(0.06172839506172839,0,0,0.06172839506172839,82.65432098765433,0)" xlink:href="#U"/><use transform="matrix(0.06172839506172839,0,0,0.06172839506172839,95.00000000000001,0)" xlink:href="#aj"/></g><path fill="#3a414a" d="M233-177c-1 41-23 64-60 70L243 0h-38l-65-103H63V0H30v-248c88 3 205-21 203 71zM63-129c60-2 137 13 137-47 0-61-80-42-137-45v92" id="ak"/><path fill="#3a414a" d="M96-169c-40 0-48 33-48 73s9 75 48 75c24 0 41-14 43-38l32 2c-6 37-31 61-74 61-59 0-76-41-82-99-10-93 101-131 147-64 4 7 5 14 7 22l-32 3c-4-21-16-35-41-35" id="al"/><path fill="#3a414a" d="M117-194c89-4 53 116 60 194h-32v-121c0-31-8-49-39-48C34-167 62-67 57 0H25l-1-190h30c1 10-1 24 2 32 11-22 29-35 61-36" id="am"/><g id="f"><use transform="matrix(0.06172839506172839,0,0,0.06172839506172839,0,0)" xlink:href="#ak"/><use transform="matrix(0.06172839506172839,0,0,0.06172839506172839,15.987654320987653,0)" xlink:href="#U"/><use transform="matrix(0.06172839506172839,0,0,0.06172839506172839,28.333333333333332,0)" xlink:href="#al"/><use transform="matrix(0.06172839506172839,0,0,0.06172839506172839,39.44444444444444,0)" xlink:href="#af"/><use transform="matrix(0.06172839506172839,0,0,0.06172839506172839,51.79012345679012,0)" xlink:href="#am"/><use transform="matrix(0.06172839506172839,0,0,0.06172839506172839,64.1358024691358,0)" xlink:href="#af"/><use transform="matrix(0.06172839506172839,0,0,0.06172839506172839,76.48148148148148,0)" xlink:href="#al"/><use transform="matrix(0.06172839506172839,0,0,0.06172839506172839,87.5925925925926,0)" xlink:href="#ad"/><use transform="matrix(0.06172839506172839,0,0,0.06172839506172839,92.46913580246914,0)" xlink:href="#ae"/><use transform="matrix(0.06172839506172839,0,0,0.06172839506172839,110.92592592592592,0)" xlink:href="#ad"/><use transform="matrix(0.06172839506172839,0,0,0.06172839506172839,115.80246913580247,0)" xlink:href="#U"/><use transform="matrix(0.06172839506172839,0,0,0.06172839506172839,128.14814814814815,0)" xlink:href="#am"/><use transform="matrix(0.06172839506172839,0,0,0.06172839506172839,140.49382716049382,0)" xlink:href="#ag"/><use transform="matrix(0.06172839506172839,0,0,0.06172839506172839,146.66666666666666,0)" xlink:href="#af"/></g><path fill="#3a414a" d="M101-234c-31-9-42 10-38 44h38v23H63V0H32v-167H5v-23h27c-7-52 17-82 69-68v24" id="an"/><path fill="#3a414a" d="M24 0v-261h32V0H24" id="ao"/><g id="g"><use transform="matrix(0.06172839506172839,0,0,0.06172839506172839,0,0)" xlink:href="#an"/><use transform="matrix(0.06172839506172839,0,0,0.06172839506172839,6.172839506172839,0)" xlink:href="#Z"/><use transform="matrix(0.06172839506172839,0,0,0.06172839506172839,18.51851851851852,0)" xlink:href="#al"/><use transform="matrix(0.06172839506172839,0,0,0.06172839506172839,29.62962962962963,0)" xlink:href="#ad"/><use transform="matrix(0.06172839506172839,0,0,0.06172839506172839,34.50617283950617,0)" xlink:href="#Z"/><use transform="matrix(0.06172839506172839,0,0,0.06172839506172839,46.85185185185185,0)" xlink:href="#ao"/></g><g id="h"><use transform="matrix(0.06172839506172839,0,0,0.06172839506172839,0,0)" xlink:href="#ai"/><use transform="matrix(0.06172839506172839,0,0,0.06172839506172839,12.345679012345679,0)" xlink:href="#Z"/><use transform="matrix(0.06172839506172839,0,0,0.06172839506172839,24.691358024691358,0)" xlink:href="#V"/><use transform="matrix(0.06172839506172839,0,0,0.06172839506172839,32.03703703703704,0)" xlink:href="#Z"/></g><path fill="#3a414a" d="M30 0v-248h33v221h125V0H30" id="ap"/><g id="i"><use transform="matrix(0.06172839506172839,0,0,0.06172839506172839,0,0)" xlink:href="#ap"/><use transform="matrix(0.06172839506172839,0,0,0.06172839506172839,12.345679012345679,0)" xlink:href="#af"/><use transform="matrix(0.06172839506172839,0,0,0.06172839506172839,24.691358024691358,0)" xlink:href="#aa"/></g><path fill="#3a414a" d="M33 0v-248h34V0H33" id="aq"/><g id="j"><use transform="matrix(0.06172839506172839,0,0,0.06172839506172839,0,0)" xlink:href="#aq"/><use transform="matrix(0.06172839506172839,0,0,0.06172839506172839,6.172839506172839,0)" xlink:href="#am"/></g><path fill="#3a414a" d="M205 0l-28-72H64L36 0H1l101-248h38L239 0h-34zm-38-99l-47-123c-12 45-31 82-46 123h93" id="ar"/><path fill="#3a414a" d="M85-194c31 0 48 13 60 33l-1-100h32l1 261h-30c-2-10 0-23-3-31C134-8 116 4 85 4 32 4 16-35 15-94c0-66 23-100 70-100zm9 24c-40 0-46 34-46 75 0 40 6 74 45 74 42 0 51-32 51-76 0-42-9-74-50-73" id="as"/><g id="k"><use transform="matrix(0.06172839506172839,0,0,0.06172839506172839,0,0)" xlink:href="#ar"/><use transform="matrix(0.06172839506172839,0,0,0.06172839506172839,14.814814814814813,0)" xlink:href="#as"/><use transform="matrix(0.06172839506172839,0,0,0.06172839506172839,27.160493827160494,0)" xlink:href="#ae"/><use transform="matrix(0.06172839506172839,0,0,0.06172839506172839,45.61728395061728,0)" xlink:href="#ad"/><use transform="matrix(0.06172839506172839,0,0,0.06172839506172839,50.49382716049382,0)" xlink:href="#am"/></g><path fill="#3a414a" d="M80-196l47-18 7 23-49 13 32 44-20 13-27-46-27 45-21-12 33-44-49-13 8-23 47 19-2-53h23" id="at"/><path fill="#3a414a" d="M141 0L90-78 38 0H4l68-98-65-92h35l48 74 47-74h35l-64 92 68 98h-35" id="au"/><g id="l"><use transform="matrix(0.06172839506172839,0,0,0.06172839506172839,0,0)" xlink:href="#at"/><use transform="matrix(0.06172839506172839,0,0,0.06172839506172839,8.641975308641975,0)" xlink:href="#U"/><use transform="matrix(0.06172839506172839,0,0,0.06172839506172839,20.98765432098765,0)" xlink:href="#au"/><use transform="matrix(0.06172839506172839,0,0,0.06172839506172839,32.09876543209876,0)" xlink:href="#ag"/><use transform="matrix(0.06172839506172839,0,0,0.06172839506172839,38.2716049382716,0)" xlink:href="#U"/><use transform="matrix(0.06172839506172839,0,0,0.06172839506172839,50.61728395061728,0)" xlink:href="#am"/><use transform="matrix(0.06172839506172839,0,0,0.06172839506172839,62.962962962962955,0)" xlink:href="#as"/></g><path fill="#3a414a" d="M84 4C-5 8 30-112 23-190h32v120c0 31 7 50 39 49 72-2 45-101 50-169h31l1 190h-30c-1-10 1-25-2-33-11 22-28 36-60 37" id="av"/><g id="m"><use transform="matrix(0.06172839506172839,0,0,0.06172839506172839,0,0)" xlink:href="#S"/><use transform="matrix(0.06172839506172839,0,0,0.06172839506172839,15.987654320987653,0)" xlink:href="#T"/><use transform="matrix(0.06172839506172839,0,0,0.06172839506172839,27.098765432098766,0)" xlink:href="#av"/><use transform="matrix(0.06172839506172839,0,0,0.06172839506172839,39.44444444444444,0)" xlink:href="#Z"/><use transform="matrix(0.06172839506172839,0,0,0.06172839506172839,51.79012345679012,0)" xlink:href="#V"/><use transform="matrix(0.06172839506172839,0,0,0.06172839506172839,59.1358024691358,0)" xlink:href="#ad"/><use transform="matrix(0.06172839506172839,0,0,0.06172839506172839,64.01234567901234,0)" xlink:href="#af"/></g><path d="M205 0l-28-72H64L36 0H1l101-248h38L239 0h-34zm-38-99l-47-123c-12 45-31 82-46 123h93" id="aw"/><path d="M96-169c-40 0-48 33-48 73s9 75 48 75c24 0 41-14 43-38l32 2c-6 37-31 61-74 61-59 0-76-41-82-99-10-93 101-131 147-64 4 7 5 14 7 22l-32 3c-4-21-16-35-41-35" id="ax"/><path d="M100-194c63 0 86 42 84 106H49c0 40 14 67 53 68 26 1 43-12 49-29l28 8c-11 28-37 45-77 45C44 4 14-33 15-96c1-61 26-98 85-98zm52 81c6-60-76-77-97-28-3 7-6 17-6 28h103" id="ay"/><path d="M85-194c31 0 48 13 60 33l-1-100h32l1 261h-30c-2-10 0-23-3-31C134-8 116 4 85 4 32 4 16-35 15-94c0-66 23-100 70-100zm9 24c-40 0-46 34-46 75 0 40 6 74 45 74 42 0 51-32 51-76 0-42-9-74-50-73" id="az"/><path d="M114-163C36-179 61-72 57 0H25l-1-190h30c1 12-1 29 2 39 6-27 23-49 58-41v29" id="aA"/><g id="n"><use transform="matrix(0.05,0,0,0.05,0,0)" xlink:href="#aw"/><use transform="matrix(0.05,0,0,0.05,12,0)" xlink:href="#ax"/><use transform="matrix(0.05,0,0,0.05,21,0)" xlink:href="#ax"/><use transform="matrix(0.05,0,0,0.05,30,0)" xlink:href="#ay"/><use transform="matrix(0.05,0,0,0.05,40,0)" xlink:href="#az"/><use transform="matrix(0.05,0,0,0.05,50,0)" xlink:href="#ay"/><use transform="matrix(0.05,0,0,0.05,60,0)" xlink:href="#aA"/></g><path d="M141-36C126-15 110 5 73 4 37 3 15-17 15-53c-1-64 63-63 125-63 3-35-9-54-41-54-24 1-41 7-42 31l-33-3c5-37 33-52 76-52 45 0 72 20 72 64v82c-1 20 7 32 28 27v20c-31 9-61-2-59-35zM48-53c0 20 12 33 32 33 41-3 63-29 60-74-43 2-92-5-92 41" id="aB"/><use transform="matrix(0.05,0,0,0.05,0,0)" xlink:href="#aB" id="o"/><path d="M24 0v-261h32V0H24" id="aC"/><g id="p"><use transform="matrix(0.05,0,0,0.05,0,0)" xlink:href="#aC"/><use transform="matrix(0.05,0,0,0.05,3.95,0)" xlink:href="#aB"/></g><path d="M206 0h-36l-40-164L89 0H53L-1-190h32L70-26l43-164h34l41 164 42-164h31" id="aD"/><path d="M115-194c53 0 69 39 70 98 0 66-23 100-70 100C84 3 66-7 56-30L54 0H23l1-261h32v101c10-23 28-34 59-34zm-8 174c40 0 45-34 45-75 0-40-5-75-45-74-42 0-51 32-51 76 0 43 10 73 51 73" id="aE"/><g id="q"><use transform="matrix(0.05,0,0,0.05,0,0)" xlink:href="#aD"/><use transform="matrix(0.05,0,0,0.05,12.950000000000001,0)" xlink:href="#ay"/><use transform="matrix(0.05,0,0,0.05,22.950000000000003,0)" xlink:href="#aE"/></g><path d="M212-179c-10-28-35-45-73-45-59 0-87 40-87 99 0 60 29 101 89 101 43 0 62-24 78-52l27 14C228-24 195 4 139 4 59 4 22-46 18-125c-6-104 99-153 187-111 19 9 31 26 39 46" id="aF"/><path d="M106-169C34-169 62-67 57 0H25v-261h32l-1 103c12-21 28-36 61-36 89 0 53 116 60 194h-32v-121c2-32-8-49-39-48" id="aG"/><path d="M59-47c-2 24 18 29 38 22v24C64 9 27 4 27-40v-127H5v-23h24l9-43h21v43h35v23H59v120" id="aH"/><g id="r"><use transform="matrix(0.05,0,0,0.05,0,0)" xlink:href="#aF"/><use transform="matrix(0.05,0,0,0.05,12.950000000000001,0)" xlink:href="#aG"/><use transform="matrix(0.05,0,0,0.05,22.950000000000003,0)" xlink:href="#aB"/><use transform="matrix(0.05,0,0,0.05,32.95,0)" xlink:href="#aH"/><use transform="matrix(0.05,0,0,0.05,37.95,0)" xlink:href="#ay"/><use transform="matrix(0.05,0,0,0.05,47.95,0)" xlink:href="#aB"/><use transform="matrix(0.05,0,0,0.05,57.95,0)" xlink:href="#aA"/></g><path d="M100-194c62-1 85 37 85 99 1 63-27 99-86 99S16-35 15-95c0-66 28-99 85-99zM99-20c44 1 53-31 53-75 0-43-8-75-51-75s-53 32-53 75 10 74 51 75" id="aI"/><path d="M117-194c89-4 53 116 60 194h-32v-121c0-31-8-49-39-48C34-167 62-67 57 0H25l-1-190h30c1 10-1 24 2 32 11-22 29-35 61-36" id="aJ"/><g id="s"><use transform="matrix(0.05,0,0,0.05,0,0)" xlink:href="#ax"/><use transform="matrix(0.05,0,0,0.05,9,0)" xlink:href="#aI"/><use transform="matrix(0.05,0,0,0.05,19,0)" xlink:href="#aJ"/></g><path d="M210-169c-67 3-38 105-44 169h-31v-121c0-29-5-50-35-48C34-165 62-65 56 0H25l-1-190h30c1 10-1 24 2 32 10-44 99-50 107 0 11-21 27-35 58-36 85-2 47 119 55 194h-31v-121c0-29-5-49-35-48" id="aK"/><path d="M115-194c55 1 70 41 70 98S169 2 115 4C84 4 66-9 55-30l1 105H24l-1-265h31l2 30c10-21 28-34 59-34zm-8 174c40 0 45-34 45-75s-6-73-45-74c-42 0-51 32-51 76 0 43 10 73 51 73" id="aL"/><path d="M135-143c-3-34-86-38-87 0 15 53 115 12 119 90S17 21 10-45l28-5c4 36 97 45 98 0-10-56-113-15-118-90-4-57 82-63 122-42 12 7 21 19 24 35" id="aM"/><g id="t"><use transform="matrix(0.05,0,0,0.05,0,0)" xlink:href="#ay"/><use transform="matrix(0.05,0,0,0.05,10,0)" xlink:href="#aK"/><use transform="matrix(0.05,0,0,0.05,24.950000000000003,0)" xlink:href="#aL"/><use transform="matrix(0.05,0,0,0.05,34.95,0)" xlink:href="#aA"/><use transform="matrix(0.05,0,0,0.05,40.900000000000006,0)" xlink:href="#ay"/><use transform="matrix(0.05,0,0,0.05,50.900000000000006,0)" xlink:href="#aM"/><use transform="matrix(0.05,0,0,0.05,59.900000000000006,0)" xlink:href="#aB"/></g><g id="u"><use transform="matrix(0.05,0,0,0.05,0,0)" xlink:href="#aF"/><use transform="matrix(0.05,0,0,0.05,12.950000000000001,0)" xlink:href="#aI"/><use transform="matrix(0.05,0,0,0.05,22.950000000000003,0)" xlink:href="#aJ"/><use transform="matrix(0.05,0,0,0.05,32.95,0)" xlink:href="#aH"/><use transform="matrix(0.05,0,0,0.05,37.95,0)" xlink:href="#aB"/><use transform="matrix(0.05,0,0,0.05,47.95,0)" xlink:href="#ax"/><use transform="matrix(0.05,0,0,0.05,56.95,0)" xlink:href="#aH"/><use transform="matrix(0.05,0,0,0.05,61.95,0)" xlink:href="#aB"/><use transform="matrix(0.05,0,0,0.05,71.95,0)" xlink:href="#aA"/></g><path d="M108 0H70L1-190h34L89-25l56-165h34" id="aN"/><path d="M34 0v-190h32V0H34zM24-211c8-23 27-35 38-54h36v5l-58 49H24" id="aO"/><g id="v"><use transform="matrix(0.05,0,0,0.05,0,0)" xlink:href="#aN"/><use transform="matrix(0.05,0,0,0.05,9,0)" xlink:href="#aO"/><use transform="matrix(0.05,0,0,0.05,14,0)" xlink:href="#aB"/></g><path d="M266 0h-40l-56-210L115 0H75L2-248h35L96-30l15-64 43-154h32l59 218 59-218h35" id="aP"/><g id="w"><use transform="matrix(0.05,0,0,0.05,0,0)" xlink:href="#aP"/><use transform="matrix(0.05,0,0,0.05,16.95,0)" xlink:href="#aG"/><use transform="matrix(0.05,0,0,0.05,26.950000000000003,0)" xlink:href="#aB"/><use transform="matrix(0.05,0,0,0.05,36.95,0)" xlink:href="#aH"/><use transform="matrix(0.05,0,0,0.05,41.95,0)" xlink:href="#aM"/><use transform="matrix(0.05,0,0,0.05,50.95,0)" xlink:href="#aw"/><use transform="matrix(0.05,0,0,0.05,62.95,0)" xlink:href="#aL"/><use transform="matrix(0.05,0,0,0.05,72.95,0)" xlink:href="#aL"/></g><path fill="#3a414a" d="M106-169C34-169 62-67 57 0H25v-261h32l-1 103c12-21 28-36 61-36 89 0 53 116 60 194h-32v-121c2-32-8-49-39-48" id="aQ"/><g id="x"><use transform="matrix(0.06172839506172839,0,0,0.06172839506172839,0,0)" xlink:href="#Y"/><use transform="matrix(0.06172839506172839,0,0,0.06172839506172839,14.814814814814813,0)" xlink:href="#ah"/><use transform="matrix(0.06172839506172839,0,0,0.06172839506172839,25.925925925925924,0)" xlink:href="#ag"/><use transform="matrix(0.06172839506172839,0,0,0.06172839506172839,32.098765432098766,0)" xlink:href="#aQ"/><use transform="matrix(0.06172839506172839,0,0,0.06172839506172839,44.44444444444444,0)" xlink:href="#af"/><use transform="matrix(0.06172839506172839,0,0,0.06172839506172839,56.79012345679012,0)" xlink:href="#am"/></g><path fill="#3a414a" d="M212-179c-10-28-35-45-73-45-59 0-87 40-87 99 0 60 29 101 89 101 43 0 62-24 78-52l27 14C228-24 195 4 139 4 59 4 22-46 18-125c-6-104 99-153 187-111 19 9 31 26 39 46" id="aR"/><path fill="#3a414a" d="M160-131c35 5 61 23 61 61C221 17 115-2 30 0v-248c76 3 177-17 177 60 0 33-19 50-47 57zm-97-11c50-1 110 9 110-42 0-47-63-36-110-37v79zm0 115c55-2 124 14 124-45 0-56-70-42-124-44v89" id="aS"/><g id="y"><use transform="matrix(0.06172839506172839,0,0,0.06172839506172839,0,0)" xlink:href="#aR"/><use transform="matrix(0.06172839506172839,0,0,0.06172839506172839,15.987654320987653,0)" xlink:href="#aQ"/><use transform="matrix(0.06172839506172839,0,0,0.06172839506172839,28.333333333333332,0)" xlink:href="#Z"/><use transform="matrix(0.06172839506172839,0,0,0.06172839506172839,40.67901234567901,0)" xlink:href="#ag"/><use transform="matrix(0.06172839506172839,0,0,0.06172839506172839,46.851851851851855,0)" xlink:href="#aS"/><use transform="matrix(0.06172839506172839,0,0,0.06172839506172839,61.66666666666667,0)" xlink:href="#af"/><use transform="matrix(0.06172839506172839,0,0,0.06172839506172839,74.01234567901236,0)" xlink:href="#ag"/></g><g id="z"><use transform="matrix(0.06172839506172839,0,0,0.06172839506172839,0,0)" xlink:href="#at"/><use transform="matrix(0.06172839506172839,0,0,0.06172839506172839,8.641975308641975,0)" xlink:href="#ad"/><use transform="matrix(0.06172839506172839,0,0,0.06172839506172839,13.518518518518517,0)" xlink:href="#am"/><use transform="matrix(0.06172839506172839,0,0,0.06172839506172839,25.864197530864196,0)" xlink:href="#al"/><use transform="matrix(0.06172839506172839,0,0,0.06172839506172839,36.9753086419753,0)" xlink:href="#ao"/><use transform="matrix(0.06172839506172839,0,0,0.06172839506172839,41.85185185185185,0)" xlink:href="#av"/><use transform="matrix(0.06172839506172839,0,0,0.06172839506172839,54.197530864197525,0)" xlink:href="#as"/><use transform="matrix(0.06172839506172839,0,0,0.06172839506172839,66.5432098765432,0)" xlink:href="#U"/></g><g id="A"><use transform="matrix(0.06172839506172839,0,0,0.06172839506172839,0,0)" xlink:href="#ac"/><use transform="matrix(0.06172839506172839,0,0,0.06172839506172839,13.518518518518517,0)" xlink:href="#Z"/><use transform="matrix(0.06172839506172839,0,0,0.06172839506172839,25.864197530864196,0)" xlink:href="#al"/><use transform="matrix(0.06172839506172839,0,0,0.06172839506172839,36.9753086419753,0)" xlink:href="#U"/></g><g id="B"><use transform="matrix(0.06172839506172839,0,0,0.06172839506172839,0,0)" xlink:href="#ak"/><use transform="matrix(0.06172839506172839,0,0,0.06172839506172839,15.987654320987653,0)" xlink:href="#U"/><use transform="matrix(0.06172839506172839,0,0,0.06172839506172839,28.333333333333332,0)" xlink:href="#al"/><use transform="matrix(0.06172839506172839,0,0,0.06172839506172839,39.44444444444444,0)" xlink:href="#af"/><use transform="matrix(0.06172839506172839,0,0,0.06172839506172839,51.79012345679012,0)" xlink:href="#aa"/><use transform="matrix(0.06172839506172839,0,0,0.06172839506172839,64.1358024691358,0)" xlink:href="#am"/><use transform="matrix(0.06172839506172839,0,0,0.06172839506172839,76.48148148148148,0)" xlink:href="#ad"/><use transform="matrix(0.06172839506172839,0,0,0.06172839506172839,81.35802469135803,0)" xlink:href="#ag"/><use transform="matrix(0.06172839506172839,0,0,0.06172839506172839,87.53086419753086,0)" xlink:href="#ad"/><use transform="matrix(0.06172839506172839,0,0,0.06172839506172839,92.4074074074074,0)" xlink:href="#af"/><use transform="matrix(0.06172839506172839,0,0,0.06172839506172839,104.75308641975309,0)" xlink:href="#am"/></g><g id="C"><use transform="matrix(0.06172839506172839,0,0,0.06172839506172839,0,0)" xlink:href="#ar"/><use transform="matrix(0.06172839506172839,0,0,0.06172839506172839,14.814814814814813,0)" xlink:href="#ai"/><use transform="matrix(0.06172839506172839,0,0,0.06172839506172839,27.160493827160494,0)" xlink:href="#ai"/></g><g id="D"><use transform="matrix(0.06172839506172839,0,0,0.06172839506172839,0,0)" xlink:href="#ar"/><use transform="matrix(0.06172839506172839,0,0,0.06172839506172839,14.814814814814813,0)" xlink:href="#as"/><use transform="matrix(0.06172839506172839,0,0,0.06172839506172839,27.160493827160494,0)" xlink:href="#ae"/><use transform="matrix(0.06172839506172839,0,0,0.06172839506172839,45.61728395061728,0)" xlink:href="#ad"/><use transform="matrix(0.06172839506172839,0,0,0.06172839506172839,50.49382716049382,0)" xlink:href="#am"/></g><path d="M24-231v-30h32v30H24zM24 0v-190h32V0H24" id="aT"/><g id="E"><use transform="matrix(0.05,0,0,0.05,0,0)" xlink:href="#aw"/><use transform="matrix(0.05,0,0,0.05,12,0)" xlink:href="#az"/><use transform="matrix(0.05,0,0,0.05,22,0)" xlink:href="#aK"/><use transform="matrix(0.05,0,0,0.05,36.95,0)" xlink:href="#aT"/><use transform="matrix(0.05,0,0,0.05,40.900000000000006,0)" xlink:href="#aJ"/><use transform="matrix(0.05,0,0,0.05,50.900000000000006,0)" xlink:href="#aT"/><use transform="matrix(0.05,0,0,0.05,54.85,0)" xlink:href="#aM"/><use transform="matrix(0.05,0,0,0.05,63.85,0)" xlink:href="#aH"/><use transform="matrix(0.05,0,0,0.05,68.85000000000001,0)" xlink:href="#aA"/><use transform="matrix(0.05,0,0,0.05,74.80000000000001,0)" xlink:href="#aB"/><use transform="matrix(0.05,0,0,0.05,84.80000000000001,0)" xlink:href="#aA"/></g><g id="F"><use transform="matrix(0.05,0,0,0.05,0,0)" xlink:href="#aC"/><use transform="matrix(0.05,0,0,0.05,3.95,0)" xlink:href="#aB"/></g><g id="G"><use transform="matrix(0.05,0,0,0.05,0,0)" xlink:href="#aD"/><use transform="matrix(0.05,0,0,0.05,12.950000000000001,0)" xlink:href="#ay"/><use transform="matrix(0.05,0,0,0.05,22.950000000000003,0)" xlink:href="#aE"/></g><g id="H"><use transform="matrix(0.05,0,0,0.05,0,0)" xlink:href="#aF"/><use transform="matrix(0.05,0,0,0.05,12.950000000000001,0)" xlink:href="#aI"/><use transform="matrix(0.05,0,0,0.05,22.950000000000003,0)" xlink:href="#aK"/><use transform="matrix(0.05,0,0,0.05,37.900000000000006,0)" xlink:href="#aL"/><use transform="matrix(0.05,0,0,0.05,47.900000000000006,0)" xlink:href="#aA"/><use transform="matrix(0.05,0,0,0.05,53.85,0)" xlink:href="#aB"/><use transform="matrix(0.05,0,0,0.05,63.85,0)" xlink:href="#aA"/></g><g id="I"><use transform="matrix(0.05,0,0,0.05,0,0)" xlink:href="#ay"/><use transform="matrix(0.05,0,0,0.05,10,0)" xlink:href="#aJ"/></g><g id="J"><use transform="matrix(0.05,0,0,0.05,0,0)" xlink:href="#aC"/><use transform="matrix(0.05,0,0,0.05,3.95,0)" xlink:href="#aO"/><use transform="matrix(0.05,0,0,0.05,8.95,0)" xlink:href="#aJ"/><use transform="matrix(0.05,0,0,0.05,18.95,0)" xlink:href="#ay"/><use transform="matrix(0.05,0,0,0.05,28.950000000000003,0)" xlink:href="#aB"/></g><g id="K"><use transform="matrix(0.06172839506172839,0,0,0.06172839506172839,0,0)" xlink:href="#ak"/><use transform="matrix(0.06172839506172839,0,0,0.06172839506172839,15.987654320987653,0)" xlink:href="#U"/><use transform="matrix(0.06172839506172839,0,0,0.06172839506172839,28.333333333333332,0)" xlink:href="#al"/><use transform="matrix(0.06172839506172839,0,0,0.06172839506172839,39.44444444444444,0)" xlink:href="#af"/><use transform="matrix(0.06172839506172839,0,0,0.06172839506172839,51.79012345679012,0)" xlink:href="#ae"/><use transform="matrix(0.06172839506172839,0,0,0.06172839506172839,70.24691358024691,0)" xlink:href="#ae"/><use transform="matrix(0.06172839506172839,0,0,0.06172839506172839,88.7037037037037,0)" xlink:href="#U"/><use transform="matrix(0.06172839506172839,0,0,0.06172839506172839,101.04938271604938,0)" xlink:href="#am"/><use transform="matrix(0.06172839506172839,0,0,0.06172839506172839,113.39506172839506,0)" xlink:href="#as"/><use transform="matrix(0.06172839506172839,0,0,0.06172839506172839,125.74074074074075,0)" xlink:href="#Z"/><use transform="matrix(0.06172839506172839,0,0,0.06172839506172839,138.08641975308643,0)" xlink:href="#ag"/><use transform="matrix(0.06172839506172839,0,0,0.06172839506172839,144.25925925925927,0)" xlink:href="#ad"/><use transform="matrix(0.06172839506172839,0,0,0.06172839506172839,149.1358024691358,0)" xlink:href="#af"/><use transform="matrix(0.06172839506172839,0,0,0.06172839506172839,161.48148148148147,0)" xlink:href="#am"/></g><g id="L"><use transform="matrix(0.06172839506172839,0,0,0.06172839506172839,0,0)" xlink:href="#ar"/><use transform="matrix(0.06172839506172839,0,0,0.06172839506172839,14.814814814814813,0)" xlink:href="#ao"/><use transform="matrix(0.06172839506172839,0,0,0.06172839506172839,19.691358024691354,0)" xlink:href="#aa"/><use transform="matrix(0.06172839506172839,0,0,0.06172839506172839,32.03703703703703,0)" xlink:href="#af"/><use transform="matrix(0.06172839506172839,0,0,0.06172839506172839,44.38271604938271,0)" xlink:href="#V"/><use transform="matrix(0.06172839506172839,0,0,0.06172839506172839,51.728395061728385,0)" xlink:href="#ad"/><use transform="matrix(0.06172839506172839,0,0,0.06172839506172839,56.60493827160493,0)" xlink:href="#ag"/><use transform="matrix(0.06172839506172839,0,0,0.06172839506172839,62.77777777777777,0)" xlink:href="#aQ"/><use transform="matrix(0.06172839506172839,0,0,0.06172839506172839,75.12345679012346,0)" xlink:href="#ae"/></g><g id="M"><use transform="matrix(0.06172839506172839,0,0,0.06172839506172839,0,0)" xlink:href="#aR"/><use transform="matrix(0.06172839506172839,0,0,0.06172839506172839,15.987654320987653,0)" xlink:href="#ao"/><use transform="matrix(0.06172839506172839,0,0,0.06172839506172839,20.864197530864196,0)" xlink:href="#af"/><use transform="matrix(0.06172839506172839,0,0,0.06172839506172839,33.20987654320987,0)" xlink:href="#av"/><use transform="matrix(0.06172839506172839,0,0,0.06172839506172839,45.55555555555555,0)" xlink:href="#as"/></g><path fill="#3a414a" d="M30-248c118-7 216 8 213 122C240-48 200 0 122 0H30v-248zM63-27c89 8 146-16 146-99s-60-101-146-95v194" id="aU"/><g id="N"><use transform="matrix(0.06172839506172839,0,0,0.06172839506172839,0,0)" xlink:href="#aU"/><use transform="matrix(0.06172839506172839,0,0,0.06172839506172839,15.987654320987653,0)" xlink:href="#Z"/><use transform="matrix(0.06172839506172839,0,0,0.06172839506172839,28.333333333333332,0)" xlink:href="#ag"/><use transform="matrix(0.06172839506172839,0,0,0.06172839506172839,34.50617283950617,0)" xlink:href="#Z"/><use transform="matrix(0.06172839506172839,0,0,0.06172839506172839,46.85185185185185,0)" xlink:href="#X"/><use transform="matrix(0.06172839506172839,0,0,0.06172839506172839,59.197530864197525,0)" xlink:href="#Z"/><use transform="matrix(0.06172839506172839,0,0,0.06172839506172839,71.5432098765432,0)" xlink:href="#T"/><use transform="matrix(0.06172839506172839,0,0,0.06172839506172839,82.65432098765432,0)" xlink:href="#U"/></g><path fill="#3a414a" d="M9 0v-24l116-142H16v-24h144v24L44-24h123V0H9" id="aV"/><path fill="#3a414a" d="M68-38c1 34 0 65-14 84H32c9-13 17-26 17-46H33v-38h35" id="aW"/><g id="O"><use transform="matrix(0.06172839506172839,0,0,0.06172839506172839,0,0)" xlink:href="#ab"/><use transform="matrix(0.06172839506172839,0,0,0.06172839506172839,7.345679012345679,0)" xlink:href="#ar"/><use transform="matrix(0.06172839506172839,0,0,0.06172839506172839,22.160493827160494,0)" xlink:href="#aV"/><use transform="matrix(0.06172839506172839,0,0,0.06172839506172839,33.27160493827161,0)" xlink:href="#av"/><use transform="matrix(0.06172839506172839,0,0,0.06172839506172839,45.617283950617285,0)" xlink:href="#V"/><use transform="matrix(0.06172839506172839,0,0,0.06172839506172839,52.96296296296296,0)" xlink:href="#U"/><use transform="matrix(0.06172839506172839,0,0,0.06172839506172839,65.30864197530865,0)" xlink:href="#aW"/></g><path fill="#3a414a" d="M185-189c-5-48-123-54-124 2 14 75 158 14 163 119 3 78-121 87-175 55-17-10-28-26-33-46l33-7c5 56 141 63 141-1 0-78-155-14-162-118-5-82 145-84 179-34 5 7 8 16 11 25" id="aX"/><g id="P"><use transform="matrix(0.06172839506172839,0,0,0.06172839506172839,0,0)" xlink:href="#ar"/><use transform="matrix(0.06172839506172839,0,0,0.06172839506172839,14.012345679012345,0)" xlink:href="#W"/><use transform="matrix(0.06172839506172839,0,0,0.06172839506172839,34.938271604938265,0)" xlink:href="#aX"/><use transform="matrix(0.06172839506172839,0,0,0.06172839506172839,49.753086419753075,0)" xlink:href="#aW"/></g><path fill="#3a414a" d="M140-251c81 0 123 46 123 126C263-46 219 4 140 4 59 4 17-45 17-125s42-126 123-126zm0 227c63 0 89-41 89-101s-29-99-89-99c-61 0-89 39-89 99S79-25 140-24" id="aY"/><g id="Q"><use transform="matrix(0.06172839506172839,0,0,0.06172839506172839,0,0)" xlink:href="#aY"/><use transform="matrix(0.06172839506172839,0,0,0.06172839506172839,17.28395061728395,0)" xlink:href="#V"/><use transform="matrix(0.06172839506172839,0,0,0.06172839506172839,24.629629629629626,0)" xlink:href="#Z"/><use transform="matrix(0.06172839506172839,0,0,0.06172839506172839,36.9753086419753,0)" xlink:href="#al"/><use transform="matrix(0.06172839506172839,0,0,0.06172839506172839,48.08641975308642,0)" xlink:href="#ao"/><use transform="matrix(0.06172839506172839,0,0,0.06172839506172839,52.96296296296296,0)" xlink:href="#U"/><use transform="matrix(0.06172839506172839,0,0,0.06172839506172839,65.30864197530865,0)" xlink:href="#aW"/></g><path fill="#3a414a" d="M33 0v-38h34V0H33" id="aZ"/><g id="R"><use transform="matrix(0.06172839506172839,0,0,0.06172839506172839,0,0)" xlink:href="#U"/><use transform="matrix(0.06172839506172839,0,0,0.06172839506172839,12.345679012345679,0)" xlink:href="#ag"/><use transform="matrix(0.06172839506172839,0,0,0.06172839506172839,18.51851851851852,0)" xlink:href="#al"/><use transform="matrix(0.06172839506172839,0,0,0.06172839506172839,29.62962962962963,0)" xlink:href="#aZ"/><use transform="matrix(0.06172839506172839,0,0,0.06172839506172839,35.80246913580247,0)" xlink:href="#aj"/></g></defs></g></svg>